<svg width="424" height="201" viewBox="0 0 424 201" fill="none" xmlns="http://www.w3.org/2000/svg">
<path fill-rule="evenodd" clip-rule="evenodd" d="M138.284 46.7885C138.284 53.8513 132.542 59.5769 125.46 59.5769C97.7917 59.9175 88.5472 60.0314 85.4583 64.4491C83.912 66.6608 83.9084 69.9511 83.9084 74.8885C83.9084 74.9001 83.9084 74.9116 83.9084 74.9231C83.9084 75.313 83.8938 75.6995 83.8652 76.0821C83.8938 75.7026 83.9084 75.3163 83.9084 74.9234V74.9234C83.9084 80.1385 83.9084 83.5813 85.5391 85.8541C88.7069 90.2692 98.0283 90.2692 125.457 90.2692H125.46C135.375 90.2692 143.414 98.2851 143.414 108.173C143.414 118.061 135.375 126.077 125.46 126.077L125.393 126.077C103.773 126.077 95.0104 126.081 91.4588 130.386C89.0411 133.316 89.0381 138.238 89.0381 146.508L89.0382 146.538C89.0382 157.839 79.8515 167 68.5191 167C57.1867 167 48 157.839 48 146.538C48 135.238 57.1867 126.077 68.5191 126.077C68.701 126.077 68.8824 126.079 69.0632 126.084C68.8827 126.079 68.7013 126.077 68.519 126.077C92.9582 126.077 102.077 126.077 105.48 121.667C107.505 119.041 107.505 114.854 107.505 108.173L107.505 108.22L107.506 108.268L107.505 108.173C107.505 107.331 107.564 106.502 107.677 105.69C107.563 106.37 107.505 107.031 107.505 107.662C107.505 101.25 107.505 97.2025 105.552 94.6468C102.208 90.2703 93.1377 90.2695 68.5344 90.2695C68.5854 90.2695 68.6365 90.2691 68.6878 90.2683C68.6316 90.2689 68.5754 90.2692 68.5191 90.2692C60.0198 90.2692 53.1298 83.3985 53.1298 74.9231C53.1298 66.4476 60.0198 59.5769 68.5191 59.5769M68.5344 90.2695C68.53 90.2695 68.5256 90.2695 68.5211 90.2695H68.5191M70.4906 59.7017C69.8812 59.6234 69.2545 59.5809 68.6112 59.5772C69.2476 59.5809 69.8747 59.6231 70.4906 59.7017ZM68.5301 59.5769C99.1999 59.5769 108.542 59.5764 111.388 55.2763C112.635 53.3925 112.635 50.6837 112.635 46.7885C112.635 39.7256 118.377 34 125.46 34C132.542 34 138.284 39.7256 138.284 46.7885" fill="url(#paint0_linear_66_14)"/>
<mask id="path-2-outside-1_66_14" maskUnits="userSpaceOnUse" x="93.7069" y="134.123" width="273" height="28" fill="black">
<rect fill="white" x="93.7069" y="134.123" width="273" height="28"/>
<path d="M112.376 157.147H109.56L118.808 136.123H125.816L114.648 160.123H107.128L95.9605 136.123H103.064L112.376 157.147ZM137.579 149.403C137.579 150.491 137.781 151.44 138.187 152.251C138.613 153.04 139.232 153.648 140.043 154.075C140.875 154.502 141.888 154.715 143.083 154.715C144.299 154.715 145.312 154.502 146.123 154.075C146.933 153.648 147.541 153.04 147.947 152.251C148.352 151.44 148.555 150.491 148.555 149.403V136.123H155.211V149.723C155.211 151.92 154.699 153.84 153.675 155.483C152.672 157.104 151.264 158.374 149.451 159.291C147.637 160.187 145.515 160.635 143.083 160.635C140.672 160.635 138.549 160.187 136.715 159.291C134.901 158.374 133.483 157.104 132.459 155.483C131.456 153.84 130.955 151.92 130.955 149.723V136.123H137.579V149.403ZM169.192 136.123V157.179L166.216 154.235H184.168V160.123H162.568V136.123H169.192ZM212.446 155.483L210.398 155.899V136.123H216.83V160.123H208.478L194.622 140.379L196.638 139.963V160.123H190.206V136.123H198.782L212.446 155.483ZM251.156 150.075C250.921 152.187 250.196 154.043 248.98 155.643C247.764 157.222 246.164 158.448 244.18 159.323C242.217 160.198 239.956 160.635 237.396 160.635C234.601 160.635 232.158 160.112 230.068 159.067C227.977 158.022 226.345 156.56 225.172 154.683C224.02 152.806 223.444 150.619 223.444 148.123C223.444 145.627 224.02 143.44 225.172 141.563C226.345 139.686 227.977 138.224 230.068 137.179C232.158 136.134 234.601 135.611 237.396 135.611C239.956 135.611 242.217 136.048 244.18 136.923C246.164 137.798 247.764 139.035 248.98 140.635C250.196 142.214 250.921 144.059 251.156 146.171H244.5C244.286 145.147 243.87 144.283 243.252 143.579C242.633 142.854 241.822 142.299 240.82 141.915C239.838 141.531 238.697 141.339 237.396 141.339C235.902 141.339 234.612 141.616 233.524 142.171C232.436 142.704 231.604 143.483 231.028 144.507C230.452 145.51 230.164 146.715 230.164 148.123C230.164 149.531 230.452 150.747 231.028 151.771C231.604 152.774 232.436 153.552 233.524 154.107C234.612 154.64 235.902 154.907 237.396 154.907C238.697 154.907 239.838 154.726 240.82 154.363C241.822 154 242.633 153.456 243.252 152.731C243.87 152.006 244.286 151.12 244.5 150.075H251.156ZM257.575 136.123H264.199V160.123H257.575V136.123ZM276.455 136.123H283.111V160.123H276.455V136.123ZM261.287 144.987H279.207V150.875H261.287V144.987ZM295.478 155.515V150.171H312.022V155.515H295.478ZM308.246 136.123L319.158 160.123H312.086L302.934 138.939H304.854L295.67 160.123H288.598L299.51 136.123H308.246Z"/>
<path d="M324.631 136.123H331.255V160.123H324.631V136.123ZM361.165 155.483L359.117 155.899V136.123H365.549V160.123H357.197L343.341 140.379L345.357 139.963V160.123H338.925V136.123H347.501L361.165 155.483Z"/>
</mask>
<path d="M112.376 157.147H109.56L118.808 136.123H125.816L114.648 160.123H107.128L95.9605 136.123H103.064L112.376 157.147ZM137.579 149.403C137.579 150.491 137.781 151.44 138.187 152.251C138.613 153.04 139.232 153.648 140.043 154.075C140.875 154.502 141.888 154.715 143.083 154.715C144.299 154.715 145.312 154.502 146.123 154.075C146.933 153.648 147.541 153.04 147.947 152.251C148.352 151.44 148.555 150.491 148.555 149.403V136.123H155.211V149.723C155.211 151.92 154.699 153.84 153.675 155.483C152.672 157.104 151.264 158.374 149.451 159.291C147.637 160.187 145.515 160.635 143.083 160.635C140.672 160.635 138.549 160.187 136.715 159.291C134.901 158.374 133.483 157.104 132.459 155.483C131.456 153.84 130.955 151.92 130.955 149.723V136.123H137.579V149.403ZM169.192 136.123V157.179L166.216 154.235H184.168V160.123H162.568V136.123H169.192ZM212.446 155.483L210.398 155.899V136.123H216.83V160.123H208.478L194.622 140.379L196.638 139.963V160.123H190.206V136.123H198.782L212.446 155.483ZM251.156 150.075C250.921 152.187 250.196 154.043 248.98 155.643C247.764 157.222 246.164 158.448 244.18 159.323C242.217 160.198 239.956 160.635 237.396 160.635C234.601 160.635 232.158 160.112 230.068 159.067C227.977 158.022 226.345 156.56 225.172 154.683C224.02 152.806 223.444 150.619 223.444 148.123C223.444 145.627 224.02 143.44 225.172 141.563C226.345 139.686 227.977 138.224 230.068 137.179C232.158 136.134 234.601 135.611 237.396 135.611C239.956 135.611 242.217 136.048 244.18 136.923C246.164 137.798 247.764 139.035 248.98 140.635C250.196 142.214 250.921 144.059 251.156 146.171H244.5C244.286 145.147 243.87 144.283 243.252 143.579C242.633 142.854 241.822 142.299 240.82 141.915C239.838 141.531 238.697 141.339 237.396 141.339C235.902 141.339 234.612 141.616 233.524 142.171C232.436 142.704 231.604 143.483 231.028 144.507C230.452 145.51 230.164 146.715 230.164 148.123C230.164 149.531 230.452 150.747 231.028 151.771C231.604 152.774 232.436 153.552 233.524 154.107C234.612 154.64 235.902 154.907 237.396 154.907C238.697 154.907 239.838 154.726 240.82 154.363C241.822 154 242.633 153.456 243.252 152.731C243.87 152.006 244.286 151.12 244.5 150.075H251.156ZM257.575 136.123H264.199V160.123H257.575V136.123ZM276.455 136.123H283.111V160.123H276.455V136.123ZM261.287 144.987H279.207V150.875H261.287V144.987ZM295.478 155.515V150.171H312.022V155.515H295.478ZM308.246 136.123L319.158 160.123H312.086L302.934 138.939H304.854L295.67 160.123H288.598L299.51 136.123H308.246Z" fill="url(#paint1_linear_66_14)"/>
<path d="M324.631 136.123H331.255V160.123H324.631V136.123ZM361.165 155.483L359.117 155.899V136.123H365.549V160.123H357.197L343.341 140.379L345.357 139.963V160.123H338.925V136.123H347.501L361.165 155.483Z" fill="url(#paint2_linear_66_14)"/>
<path d="M112.376 157.147V158.147H113.913L113.291 156.742L112.376 157.147ZM109.56 157.147L108.645 156.744L108.028 158.147H109.56V157.147ZM118.808 136.123V135.123H118.156L117.893 135.72L118.808 136.123ZM125.816 136.123L126.723 136.545L127.385 135.123H125.816V136.123ZM114.648 160.123V161.123H115.286L115.555 160.545L114.648 160.123ZM107.128 160.123L106.222 160.545L106.491 161.123H107.128V160.123ZM95.9605 136.123V135.123H94.3922L95.0538 136.545L95.9605 136.123ZM103.064 136.123L103.979 135.718L103.715 135.123H103.064V136.123ZM112.376 156.147H109.56V158.147H112.376V156.147ZM110.476 157.55L119.724 136.526L117.893 135.72L108.645 156.744L110.476 157.55ZM118.808 137.123H125.816V135.123H118.808V137.123ZM124.91 135.701L113.742 159.701L115.555 160.545L126.723 136.545L124.91 135.701ZM114.648 159.123H107.128V161.123H114.648V159.123ZM108.035 159.701L96.8671 135.701L95.0538 136.545L106.222 160.545L108.035 159.701ZM95.9605 137.123H103.064V135.123H95.9605V137.123ZM102.15 136.528L111.462 157.552L113.291 156.742L103.979 135.718L102.15 136.528ZM138.187 152.251L137.292 152.698L137.299 152.713L137.307 152.727L138.187 152.251ZM140.043 154.075L139.577 154.96L139.586 154.965L140.043 154.075ZM146.123 154.075L146.588 154.96L146.588 154.96L146.123 154.075ZM147.947 152.251L148.836 152.708L148.841 152.698L147.947 152.251ZM148.555 136.123V135.123H147.555V136.123H148.555ZM155.211 136.123H156.211V135.123H155.211V136.123ZM153.675 155.483L152.826 154.954L152.824 154.957L153.675 155.483ZM149.451 159.291L149.894 160.188L149.902 160.183L149.451 159.291ZM136.715 159.291L136.263 160.183L136.276 160.19L136.715 159.291ZM132.459 155.483L131.605 156.004L131.609 156.011L131.613 156.017L132.459 155.483ZM130.955 136.123V135.123H129.955V136.123H130.955ZM137.579 136.123H138.579V135.123H137.579V136.123ZM136.579 149.403C136.579 150.616 136.805 151.724 137.292 152.698L139.081 151.804C138.758 151.157 138.579 150.367 138.579 149.403H136.579ZM137.307 152.727C137.83 153.694 138.595 154.443 139.577 154.96L140.508 153.19C139.869 152.854 139.397 152.387 139.066 151.776L137.307 152.727ZM139.586 154.965C140.593 155.481 141.772 155.715 143.083 155.715V153.715C142.004 153.715 141.156 153.522 140.499 153.185L139.586 154.965ZM143.083 155.715C144.41 155.715 145.595 155.483 146.588 154.96L145.657 153.19C145.029 153.521 144.187 153.715 143.083 153.715V155.715ZM146.588 154.96C147.575 154.441 148.334 153.686 148.836 152.708L147.057 151.794C146.749 152.394 146.292 152.856 145.657 153.19L146.588 154.96ZM148.841 152.698C149.328 151.724 149.555 150.616 149.555 149.403H147.555C147.555 150.367 147.376 151.157 147.052 151.804L148.841 152.698ZM149.555 149.403V136.123H147.555V149.403H149.555ZM148.555 137.123H155.211V135.123H148.555V137.123ZM154.211 136.123V149.723H156.211V136.123H154.211ZM154.211 149.723C154.211 151.759 153.738 153.491 152.826 154.954L154.523 156.012C155.659 154.19 156.211 152.081 156.211 149.723H154.211ZM152.824 154.957C151.925 156.411 150.66 157.559 148.999 158.399L149.902 160.183C151.868 159.189 153.419 157.797 154.525 156.009L152.824 154.957ZM149.008 158.395C147.357 159.21 145.392 159.635 143.083 159.635V161.635C145.638 161.635 147.917 161.164 149.894 160.188L149.008 158.395ZM143.083 159.635C140.797 159.635 138.829 159.211 137.154 158.392L136.276 160.19C138.27 161.163 140.547 161.635 143.083 161.635V159.635ZM137.166 158.399C135.504 157.558 134.226 156.408 133.304 154.949L131.613 156.017C132.74 157.8 134.299 159.189 136.263 160.183L137.166 158.399ZM133.312 154.962C132.418 153.498 131.955 151.763 131.955 149.723H129.955C129.955 152.078 130.494 154.183 131.605 156.004L133.312 154.962ZM131.955 149.723V136.123H129.955V149.723H131.955ZM130.955 137.123H137.579V135.123H130.955V137.123ZM136.579 136.123V149.403H138.579V136.123H136.579ZM169.192 136.123H170.192V135.123H169.192V136.123ZM169.192 157.179L168.489 157.89L170.192 159.575V157.179H169.192ZM166.216 154.235V153.235H163.784L165.513 154.946L166.216 154.235ZM184.168 154.235H185.168V153.235H184.168V154.235ZM184.168 160.123V161.123H185.168V160.123H184.168ZM162.568 160.123H161.568V161.123H162.568V160.123ZM162.568 136.123V135.123H161.568V136.123H162.568ZM168.192 136.123V157.179H170.192V136.123H168.192ZM169.896 156.468L166.92 153.524L165.513 154.946L168.489 157.89L169.896 156.468ZM166.216 155.235H184.168V153.235H166.216V155.235ZM183.168 154.235V160.123H185.168V154.235H183.168ZM184.168 159.123H162.568V161.123H184.168V159.123ZM163.568 160.123V136.123H161.568V160.123H163.568ZM162.568 137.123H169.192V135.123H162.568V137.123ZM212.446 155.483L212.645 156.463L214.146 156.158L213.263 154.906L212.446 155.483ZM210.398 155.899H209.398V157.123L210.597 156.879L210.398 155.899ZM210.398 136.123V135.123H209.398V136.123H210.398ZM216.83 136.123H217.83V135.123H216.83V136.123ZM216.83 160.123V161.123H217.83V160.123H216.83ZM208.478 160.123L207.659 160.697L207.958 161.123H208.478V160.123ZM194.622 140.379L194.42 139.4L192.929 139.707L193.803 140.953L194.622 140.379ZM196.638 139.963H197.638V138.736L196.436 138.984L196.638 139.963ZM196.638 160.123V161.123H197.638V160.123H196.638ZM190.206 160.123H189.206V161.123H190.206V160.123ZM190.206 136.123V135.123H189.206V136.123H190.206ZM198.782 136.123L199.599 135.546L199.3 135.123H198.782V136.123ZM212.247 154.503L210.199 154.919L210.597 156.879L212.645 156.463L212.247 154.503ZM211.398 155.899V136.123H209.398V155.899H211.398ZM210.398 137.123H216.83V135.123H210.398V137.123ZM215.83 136.123V160.123H217.83V136.123H215.83ZM216.83 159.123H208.478V161.123H216.83V159.123ZM209.297 159.549L195.441 139.805L193.803 140.953L207.659 160.697L209.297 159.549ZM194.824 141.358L196.84 140.942L196.436 138.984L194.42 139.4L194.824 141.358ZM195.638 139.963V160.123H197.638V139.963H195.638ZM196.638 159.123H190.206V161.123H196.638V159.123ZM191.206 160.123V136.123H189.206V160.123H191.206ZM190.206 137.123H198.782V135.123H190.206V137.123ZM197.965 136.7L211.629 156.06L213.263 154.906L199.599 135.546L197.965 136.7ZM251.156 150.075L252.15 150.185L252.273 149.075H251.156V150.075ZM248.98 155.643L249.772 156.253L249.776 156.248L248.98 155.643ZM244.18 159.323L243.776 158.408L243.773 158.41L244.18 159.323ZM230.068 159.067L230.515 158.173L230.515 158.173L230.068 159.067ZM225.172 154.683L224.319 155.206L224.324 155.213L225.172 154.683ZM225.172 141.563L224.324 141.033L224.319 141.04L225.172 141.563ZM230.068 137.179L230.515 138.073L230.515 138.073L230.068 137.179ZM244.18 136.923L243.773 137.836L243.776 137.838L244.18 136.923ZM248.98 140.635L248.184 141.24L248.187 141.245L248.98 140.635ZM251.156 146.171V147.171H252.273L252.15 146.061L251.156 146.171ZM244.5 146.171L243.521 146.375L243.687 147.171H244.5V146.171ZM243.252 143.579L242.491 144.228L242.496 144.234L242.501 144.239L243.252 143.579ZM240.82 141.915L240.455 142.846L240.462 142.849L240.82 141.915ZM233.524 142.171L233.964 143.069L233.971 143.066L233.978 143.062L233.524 142.171ZM231.028 144.507L231.895 145.005L231.899 144.997L231.028 144.507ZM231.028 151.771L230.156 152.261L230.161 152.269L231.028 151.771ZM233.524 154.107L233.07 154.998L233.077 155.002L233.084 155.005L233.524 154.107ZM240.82 154.363L240.48 153.423L240.473 153.425L240.82 154.363ZM243.252 152.731L242.491 152.082L242.491 152.082L243.252 152.731ZM244.5 150.075V149.075H243.683L243.52 149.875L244.5 150.075ZM250.162 149.965C249.946 151.908 249.284 153.59 248.184 155.038L249.776 156.248C251.108 154.496 251.896 152.466 252.15 150.185L250.162 149.965ZM248.187 155.033C247.082 156.467 245.621 157.595 243.776 158.408L244.583 160.238C246.706 159.302 248.445 157.976 249.772 156.253L248.187 155.033ZM243.773 158.41C241.96 159.217 239.842 159.635 237.396 159.635V161.635C240.07 161.635 242.474 161.178 244.587 160.236L243.773 158.41ZM237.396 159.635C234.726 159.635 232.442 159.136 230.515 158.173L229.621 159.961C231.875 161.089 234.476 161.635 237.396 161.635V159.635ZM230.515 158.173C228.579 157.205 227.09 155.865 226.02 154.153L224.324 155.213C225.6 157.255 227.375 158.839 229.621 159.961L230.515 158.173ZM226.024 154.16C224.981 152.46 224.444 150.46 224.444 148.123H222.444C222.444 150.778 223.058 153.151 224.319 155.206L226.024 154.16ZM224.444 148.123C224.444 145.786 224.981 143.786 226.024 142.086L224.319 141.04C223.058 143.095 222.444 145.468 222.444 148.123H224.444ZM226.02 142.093C227.09 140.381 228.579 139.041 230.515 138.073L229.621 136.285C227.375 137.407 225.6 138.991 224.324 141.033L226.02 142.093ZM230.515 138.073C232.442 137.11 234.726 136.611 237.396 136.611V134.611C234.476 134.611 231.875 135.158 229.621 136.285L230.515 138.073ZM237.396 136.611C239.842 136.611 241.96 137.029 243.773 137.836L244.587 136.01C242.474 135.068 240.07 134.611 237.396 134.611V136.611ZM243.776 137.838C245.618 138.65 247.078 139.786 248.184 141.24L249.776 140.03C248.449 138.284 246.71 136.945 244.583 136.008L243.776 137.838ZM248.187 141.245C249.284 142.669 249.946 144.339 250.162 146.281L252.15 146.061C251.896 143.779 251.107 141.758 249.772 140.025L248.187 141.245ZM251.156 145.171H244.5V147.171H251.156V145.171ZM245.479 145.967C245.234 144.794 244.748 143.767 244.003 142.919L242.501 144.239C242.992 144.799 243.338 145.5 243.521 146.375L245.479 145.967ZM244.013 142.93C243.272 142.062 242.316 141.417 241.177 140.981L240.462 142.849C241.329 143.181 241.994 143.645 242.491 144.228L244.013 142.93ZM241.184 140.984C240.063 140.545 238.793 140.339 237.396 140.339V142.339C238.601 142.339 239.614 142.517 240.455 142.846L241.184 140.984ZM237.396 140.339C235.779 140.339 234.326 140.64 233.07 141.28L233.978 143.062C234.897 142.593 236.026 142.339 237.396 142.339V140.339ZM233.084 141.273C231.82 141.893 230.835 142.811 230.156 144.017L231.899 144.997C232.373 144.156 233.052 143.516 233.964 143.069L233.084 141.273ZM230.161 144.009C229.48 145.193 229.164 146.578 229.164 148.123H231.164C231.164 146.852 231.423 145.826 231.895 145.005L230.161 144.009ZM229.164 148.123C229.164 149.669 229.481 151.061 230.156 152.261L231.899 151.281C231.423 150.434 231.164 149.393 231.164 148.123H229.164ZM230.161 152.269C230.839 153.45 231.819 154.36 233.07 154.998L233.978 153.216C233.053 152.744 232.369 152.098 231.895 151.273L230.161 152.269ZM233.084 155.005C234.337 155.619 235.785 155.907 237.396 155.907V153.907C236.02 153.907 234.887 153.662 233.964 153.209L233.084 155.005ZM237.396 155.907C238.788 155.907 240.051 155.713 241.166 155.301L240.473 153.425C239.626 153.738 238.607 153.907 237.396 153.907V155.907ZM241.16 155.303C242.306 154.889 243.268 154.252 244.013 153.38L242.491 152.082C241.998 152.66 241.339 153.112 240.48 153.423L241.16 155.303ZM244.013 153.38C244.754 152.511 245.236 151.466 245.48 150.275L243.52 149.875C243.336 150.775 242.987 151.5 242.491 152.082L244.013 153.38ZM244.5 151.075H251.156V149.075H244.5V151.075ZM257.575 136.123V135.123H256.575V136.123H257.575ZM264.199 136.123H265.199V135.123H264.199V136.123ZM264.199 160.123V161.123H265.199V160.123H264.199ZM257.575 160.123H256.575V161.123H257.575V160.123ZM276.455 136.123V135.123H275.455V136.123H276.455ZM283.111 136.123H284.111V135.123H283.111V136.123ZM283.111 160.123V161.123H284.111V160.123H283.111ZM276.455 160.123H275.455V161.123H276.455V160.123ZM261.287 144.987V143.987H260.287V144.987H261.287ZM279.207 144.987H280.207V143.987H279.207V144.987ZM279.207 150.875V151.875H280.207V150.875H279.207ZM261.287 150.875H260.287V151.875H261.287V150.875ZM257.575 137.123H264.199V135.123H257.575V137.123ZM263.199 136.123V160.123H265.199V136.123H263.199ZM264.199 159.123H257.575V161.123H264.199V159.123ZM258.575 160.123V136.123H256.575V160.123H258.575ZM276.455 137.123H283.111V135.123H276.455V137.123ZM282.111 136.123V160.123H284.111V136.123H282.111ZM283.111 159.123H276.455V161.123H283.111V159.123ZM277.455 160.123V136.123H275.455V160.123H277.455ZM261.287 145.987H279.207V143.987H261.287V145.987ZM278.207 144.987V150.875H280.207V144.987H278.207ZM279.207 149.875H261.287V151.875H279.207V149.875ZM262.287 150.875V144.987H260.287V150.875H262.287ZM295.478 155.515H294.478V156.515H295.478V155.515ZM295.478 150.171V149.171H294.478V150.171H295.478ZM312.022 150.171H313.022V149.171H312.022V150.171ZM312.022 155.515V156.515H313.022V155.515H312.022ZM308.246 136.123L309.156 135.709L308.89 135.123H308.246V136.123ZM319.158 160.123V161.123H320.711L320.068 159.709L319.158 160.123ZM312.086 160.123L311.168 160.52L311.429 161.123H312.086V160.123ZM302.934 138.939V137.939H301.413L302.016 139.336L302.934 138.939ZM304.854 138.939L305.771 139.337L306.377 137.939H304.854V138.939ZM295.67 160.123V161.123H296.326L296.587 160.521L295.67 160.123ZM288.598 160.123L287.688 159.709L287.045 161.123H288.598V160.123ZM299.51 136.123V135.123H298.866L298.6 135.709L299.51 136.123ZM296.478 155.515V150.171H294.478V155.515H296.478ZM295.478 151.171H312.022V149.171H295.478V151.171ZM311.022 150.171V155.515H313.022V150.171H311.022ZM312.022 154.515H295.478V156.515H312.022V154.515ZM307.336 136.537L318.248 160.537L320.068 159.709L309.156 135.709L307.336 136.537ZM319.158 159.123H312.086V161.123H319.158V159.123ZM313.004 159.726L303.852 138.542L302.016 139.336L311.168 160.52L313.004 159.726ZM302.934 139.939H304.854V137.939H302.934V139.939ZM303.936 138.541L294.752 159.725L296.587 160.521L305.771 139.337L303.936 138.541ZM295.67 159.123H288.598V161.123H295.67V159.123ZM289.508 160.537L300.42 136.537L298.6 135.709L287.688 159.709L289.508 160.537ZM299.51 137.123H308.246V135.123H299.51V137.123ZM324.631 136.123V135.123H323.631V136.123H324.631ZM331.255 136.123H332.255V135.123H331.255V136.123ZM331.255 160.123V161.123H332.255V160.123H331.255ZM324.631 160.123H323.631V161.123H324.631V160.123ZM324.631 137.123H331.255V135.123H324.631V137.123ZM330.255 136.123V160.123H332.255V136.123H330.255ZM331.255 159.123H324.631V161.123H331.255V159.123ZM325.631 160.123V136.123H323.631V160.123H325.631ZM361.165 155.483L361.364 156.463L362.865 156.158L361.982 154.906L361.165 155.483ZM359.117 155.899H358.117V157.123L359.316 156.879L359.117 155.899ZM359.117 136.123V135.123H358.117V136.123H359.117ZM365.549 136.123H366.549V135.123H365.549V136.123ZM365.549 160.123V161.123H366.549V160.123H365.549ZM357.197 160.123L356.378 160.697L356.677 161.123H357.197V160.123ZM343.341 140.379L343.139 139.4L341.648 139.707L342.522 140.953L343.341 140.379ZM345.357 139.963H346.357V138.736L345.155 138.984L345.357 139.963ZM345.357 160.123V161.123H346.357V160.123H345.357ZM338.925 160.123H337.925V161.123H338.925V160.123ZM338.925 136.123V135.123H337.925V136.123H338.925ZM347.501 136.123L348.318 135.546L348.019 135.123H347.501V136.123ZM360.966 154.503L358.918 154.919L359.316 156.879L361.364 156.463L360.966 154.503ZM360.117 155.899V136.123H358.117V155.899H360.117ZM359.117 137.123H365.549V135.123H359.117V137.123ZM364.549 136.123V160.123H366.549V136.123H364.549ZM365.549 159.123H357.197V161.123H365.549V159.123ZM358.015 159.549L344.159 139.805L342.522 140.953L356.378 160.697L358.015 159.549ZM343.543 141.358L345.559 140.942L345.155 138.984L343.139 139.4L343.543 141.358ZM344.357 139.963V160.123H346.357V139.963H344.357ZM345.357 159.123H338.925V161.123H345.357V159.123ZM339.925 160.123V136.123H337.925V160.123H339.925ZM338.925 137.123H347.501V135.123H338.925V137.123ZM346.684 136.7L360.348 156.06L361.982 154.906L348.318 135.546L346.684 136.7Z" fill="black" mask="url(#path-2-outside-1_66_14)"/>
<defs>
<linearGradient id="paint0_linear_66_14" x1="48" y1="167" x2="143.06" y2="33.7473" gradientUnits="userSpaceOnUse">
<stop stop-color="#404040"/>
<stop offset="0.667114" stop-color="#B7B7B7"/>
<stop offset="0.88" stop-color="#C50707"/>
<stop offset="1"/>
</linearGradient>
<linearGradient id="paint1_linear_66_14" x1="231.853" y1="128.123" x2="231.853" y2="167" gradientUnits="userSpaceOnUse">
<stop stop-color="#B8B8B8"/>
<stop offset="1" stop-color="#454545"/>
</linearGradient>
<linearGradient id="paint2_linear_66_14" x1="231.853" y1="128.123" x2="231.853" y2="167" gradientUnits="userSpaceOnUse">
<stop stop-color="#C10000"/>
<stop offset="1" stop-color="#3A0000"/>
</linearGradient>
</defs>
</svg>
