<svg width="33" height="31" viewBox="0 0 33 31" fill="none" xmlns="http://www.w3.org/2000/svg">
<path d="M15.9809 14.3848L19.5815 16.6906C20.7016 17.4079 21.0786 18.8679 20.4457 20.0377L16.2787 27.7403C16.1507 27.977 15.8111 27.977 15.683 27.7403L11.5161 20.0377C10.8832 18.8679 11.2601 17.4079 12.3802 16.6906L15.9809 14.3848Z" fill="white"/>
<path d="M15.7483 14.1554L11.9511 16.1208C10.7699 16.7321 9.31701 16.3286 8.62031 15.1956L4.03318 7.73557C3.89223 7.50636 4.06203 7.21226 4.33101 7.21971L13.0851 7.46228C14.4147 7.49913 15.4906 8.55556 15.5518 9.88423L15.7483 14.1554Z" fill="white"/>
<path d="M16.2347 14.1554L16.4312 9.88422C16.4924 8.55554 17.5683 7.49911 18.8979 7.46226L27.652 7.21967C27.921 7.21222 28.0908 7.50632 27.9498 7.73554L23.3627 15.1955C22.666 16.3286 21.2131 16.7321 20.0319 16.1207L16.2347 14.1554Z" fill="#C80000"/>
</svg>
