<svg width="16" height="16" viewBox="0 0 16 16" fill="none" xmlns="http://www.w3.org/2000/svg">
<path fill-rule="evenodd" clip-rule="evenodd" d="M11.8 2.25C11.8 2.94035 11.2404 3.5 10.55 3.5C7.8549 3.53327 6.95327 3.5444 6.65164 3.97542C6.50025 4.19175 6.5 4.51383 6.5 4.99757C6.5 4.99838 6.5 4.99919 6.5 5C6.5 5.0362 6.49872 5.07211 6.49619 5.10767C6.49871 5.07237 6.5 5.03647 6.5 4.99998V4.99998C6.5 5.51036 6.5 5.84708 6.65954 6.06922C6.96887 6.49995 7.87797 6.49995 10.5498 6.49995H10.55C10.5316 6.49995 10.5132 6.50025 10.4951 6.50085C10.5133 6.50028 10.5316 6.5 10.55 6.5C11.5165 6.5 12.3 7.2835 12.3 8.25C12.3 9.2165 11.5165 10 10.55 10C10.5045 10 10.4594 9.99826 10.4147 9.99485C10.459 9.99825 10.5041 10 10.55 10H10.55C8.43957 10 7.58377 10 7.23673 10.4202C7.00021 10.7066 7 11.1881 7 11.9978L7 12C7 13.1046 6.10457 14 5 14C3.89543 14 3 13.1046 3 12C3 10.8954 3.89543 10 5 10C5.01798 10 5.03591 10.0002 5.05379 10.0007C5.03595 10.0002 5.01802 10 4.99999 10C7.38042 10 8.26968 10 8.60189 9.56983C8.8 9.31329 8.79999 8.90376 8.79999 8.25L8.80002 8.25927L8.8 8.25C8.8 8.16755 8.8057 8.08644 8.81673 8.00703C8.80565 8.07357 8.8 8.13824 8.8 8.19998C8.8 7.57256 8.8 7.1767 8.60898 6.92695C8.28276 6.50042 7.39945 6.49998 5.00765 6.49998L5 6.5C4.17157 6.5 3.5 5.82843 3.5 5C3.5 4.17157 4.17157 3.5 5 3.5C5.0004 3.5 5.00081 3.5 5.00121 3.5C7.98879 3.5 8.90006 3.49994 9.17801 3.08035C9.29988 2.89638 9.3 2.63175 9.3 2.2511C9.3 2.25073 9.3 2.25037 9.3 2.25C9.3 1.55964 9.85964 1 10.55 1C11.2404 1 11.8 1.55964 11.8 2.25Z" fill="url(#paint0_linear_67_25)"/>
<defs>
<linearGradient id="paint0_linear_67_25" x1="3" y1="14" x2="12.3" y2="1" gradientUnits="userSpaceOnUse">
<stop stop-color="#404040"/>
<stop offset="0.667114" stop-color="#B7B7B7"/>
<stop offset="0.88" stop-color="#C50707"/>
<stop offset="1"/>
</linearGradient>
</defs>
</svg>
